PathFileType	4	(X/Y/Z)	OpenSim_Sub05_CSStiffKnee_Accel.trc
DataRate	CameraRate	NumFrames	NumMarkers	Units	OrigDataRate	OrigDataStartFrame	OrigNumFrames
100	100	41	8	m	100	9843	11248
Frame#	Time	torso_imu_offset_imu	pelvis_imu_offset_imu	tibia_r_imu_offset_imu	femur_r_imu_offset_imu	tibia_l_imu_offset_imu	femur_l_imu_offset_imu	toes_r_imu_offset_imu	toes_l_imu_offset_imu
				X1	Y1	Z1	X2	Y2	Z2	X3	Y3	Z3	X4	Y4	Z4	X5	Y5	Z5	X6	Y6	Z6	X7	Y7	Z7	X8		Y8	Z8	

9843	98.42000000	8.68203942	1.41191987	6.47778137	9.64540101	-1.54551256	2.89283136	-1.74915008	1.45103339	1.39519663	7.06954633	-1.50355292	3.82977243	9.87001660	-1.56496588	-1.69261360	9.60439579	0.98583433	-0.38273022	-0.57539174	-1.90964296	10.56869561	4.50539458	2.65827115	11.06399070
9844	98.43000000	8.21480251	1.57436269	6.44536625	9.03960258	-1.67815060	2.75762428	-0.78805464	2.20615549	1.73572286	7.08627572	-1.97220571	3.96376333	9.78398155	-0.93939241	-1.25691218	9.56230085	0.83337472	-0.21892233	0.18759530	-0.51042208	9.89433459	5.01118074	2.42527786	10.77099602
9845	98.44000000	7.98354328	1.81011861	6.29779601	8.58076518	-1.70418290	2.65565840	1.43855213	2.70247753	1.90585719	6.97638768	-2.19802434	4.15263201	9.79019718	-0.92042613	-0.99215519	9.40339520	0.58597867	-0.38925258	1.40162692	-0.29948121	9.52157392	4.71898270	2.36566854	10.91859961
9846	98.45000000	7.95185836	2.09129088	6.19652610	8.34912057	-1.66570104	2.50008800	3.35070422	3.65777302	1.08173464	6.69743057	-2.19820416	4.31180377	9.77611047	-1.13998483	-0.55471507	9.41590910	-0.01732777	-0.38506509	3.36089913	-0.61743021	9.38367074	4.67436085	2.32051398	11.22496690
9847	98.46000000	7.95907254	2.24300223	6.19093709	8.36652790	-1.64709669	2.34627010	4.44473637	5.26580614	0.28328389	6.30531341	-1.93015952	4.45190016	9.59876243	-1.31872791	-0.30695990	9.59836589	-0.41383883	-0.51935519	5.15860879	-0.60058420	9.61076637	4.98263067	2.03474391	11.07823728
9848	98.47000000	7.94328398	2.34337168	6.10783730	8.51650007	-1.57104547	2.20510173	4.90701168	6.20950067	0.51004956	5.96830493	-1.36230440	4.50834383	9.55573980	-1.74424140	-0.39926708	9.62781373	-0.37007404	-0.70573416	7.28491934	-0.51300899	10.26677102	5.24173247	1.99204688	10.92674999
9849	98.48000000	7.91208917	2.41835753	6.16556910	8.82127856	-1.68044794	2.02220534	5.00994277	5.97889143	0.99358735	5.64499750	-0.56708278	4.47367241	9.48198348	-2.31188836	-0.41533516	9.52502833	-0.37651063	-0.59216804	9.49669060	-0.65903171	10.96341493	5.33695120	1.90989658	10.83185676
9850	98.49000000	7.82420558	2.50585719	6.17440394	9.02398556	-1.73612463	1.93760065	5.24198062	5.26923775	1.37524315	5.36795020	0.15639701	4.40848653	9.28741054	-2.55909129	-0.43367127	9.32836919	-0.22760920	-0.38381867	11.69806649	-1.71954803	11.22156675	5.14182624	1.89987757	10.97346111
9851	98.50000000	7.80642077	2.64942909	6.27236664	9.21449795	-1.79746591	1.95730481	5.97820738	4.33334556	1.97857740	5.21621621	0.70062237	4.38423921	9.39125335	-2.42020936	-0.37568900	9.29962814	0.00836054	-0.25621152	13.19333617	-2.98315902	10.47427359	5.11451410	2.00512564	10.97734131
9852	98.51000000	7.93650770	2.72526557	6.44924888	9.28100940	-1.82844335	2.07024824	7.39959937	2.91275976	2.33430410	5.13234383	0.94735237	4.44016014	9.67099879	-1.96656264	-0.31911209	9.49476262	0.01223629	-0.01269501	13.35025107	-2.63256400	9.08491342	5.14028961	2.02109050	10.97133629
9853	98.52000000	8.00061854	2.72358687	6.32944935	9.08835519	-1.74236306	2.04078522	9.34573202	2.13833804	2.02875095	5.09504621	0.44306614	4.42449787	9.76196374	-1.68808822	-0.24065628	9.57617189	-0.03677197	0.22534142	13.78978953	-1.56621234	7.60901212	5.22125585	1.96169350	10.84494402
9854	98.53000000	7.96594064	2.68105346	6.42740322	8.78393721	-1.65322790	1.95503339	11.62672318	3.38680309	1.61995060	4.91897433	-0.96411804	4.13280499	9.66183476	-1.64215875	-0.23188405	9.51770669	0.07570469	0.25918494	14.87129941	-1.49689614	6.27774185	4.89210400	1.91962789	10.93171386
9855	98.54000000	7.90853739	2.64566854	6.53523363	8.49639084	-1.59456045	2.03477422	13.41301574	5.67941348	-0.00959385	5.12861534	-2.75510108	3.85023465	9.56451733	-1.29899693	-0.26468790	9.44289684	0.33681182	0.23758892	16.85985682	-2.49852847	5.38775536	4.60059855	1.86051206	11.04977065
9856	98.55000000	7.77932429	2.71785038	6.41111726	8.20485655	-1.59096330	1.97650748	13.38218648	8.01639774	-2.29822618	6.09554707	-4.68670863	3.98629078	9.71816716	-0.84138080	-0.33662596	9.39414669	0.51693464	0.18201686	20.64764530	-3.68041012	4.96517222	4.89195369	1.91156361	10.86860292
9857	98.56000000	7.60081670	2.71913731	6.22307370	8.01838908	-1.84644559	1.73585673	11.90068511	8.60314843	-2.06640194	7.19766962	-6.68992651	4.21960710	9.74973266	-0.40883827	-0.65301412	9.18557591	0.36214038	0.22801827	24.78464573	-4.43086944	4.18382603	4.82576068	2.07727000	10.94023031
9858	98.57000000	7.64815230	2.72114937	6.13787932	8.05294851	-2.30248572	1.64448096	10.82607109	6.77707090	0.07051542	8.06764556	-8.40602858	4.83836144	9.89285783	0.15223549	-0.82114218	9.17313980	0.30713308	-0.02122732	26.92178316	-3.72800600	2.05269381	4.68782372	2.13063400	11.00994210
9859	98.58000000	7.98023998	2.79356746	6.22226154	8.32850926	-2.58799014	1.74242431	10.86961492	5.47541797	1.43291414	9.16844962	-9.13873354	6.16583212	10.09517027	0.53718467	-1.02696078	9.28377314	0.65380667	-0.44668574	26.59839489	-1.46410595	-0.99877573	4.57085867	2.49448224	11.14522092
9860	98.59000000	8.37489852	2.92684066	6.48985253	8.70406246	-2.59437360	1.88775231	10.41968460	5.29987384	0.59206267	10.56101769	-8.84421687	6.91020421	10.26252296	0.77361996	-1.06630482	9.48016287	0.92077263	-0.63462208	25.39231980	0.31380740	-4.60394673	4.61591520	2.84902604	11.21702083
9861	98.60000000	8.73154505	3.04458766	6.79951534	9.08050679	-2.34419835	1.90739482	9.74590018	4.22717603	-0.73496492	11.59710662	-8.27611723	6.45974643	10.57555739	0.85961023	-1.02166668	9.73193436	0.82836369	-0.82696733	23.43016629	0.55189536	-8.48757622	4.75867027	2.93364836	11.21777027
9862	98.61000000	8.91768016	3.01099956	6.96156935	9.49432649	-1.86827877	1.91161889	10.05644630	3.18934841	-1.35943850	11.99768371	-7.50900084	6.17011507	10.50014799	0.49529699	-1.02405146	9.70681007	0.67995075	-0.89063237	21.72027857	1.04845255	-11.73389876	4.74425398	2.74434752	11.26745548
9863	98.62000000	9.00466630	2.88453121	6.95032115	9.99750085	-1.22029019	1.84715785	10.40352549	3.93701532	-1.70850321	10.72157353	-6.67805393	6.82577579	10.23808954	0.25405857	-0.73749109	9.37841937	0.73550593	-1.17342944	19.74068558	1.30995280	-11.76077922	4.62834631	2.53062006	11.34027395
9864	98.63000000	9.05039814	2.76072773	6.78362855	10.50989010	-0.61587521	1.75862319	10.16375060	4.57715267	-2.01671027	8.41633305	-5.63923195	7.66683065	10.12358874	0.38123836	-0.67791691	9.26867482	0.84531051	-1.50117712	21.08116087	-5.44505250	-16.55663074	4.53880764	2.57825224	11.36297348
9865	98.64000000	9.01351315	2.63729151	6.61113801	10.76163235	-0.24806620	2.01385250	10.54437074	2.15550650	-3.29128581	7.23864654	-4.61163090	9.08017836	10.20008849	0.03847513	-0.86307476	9.46114633	0.94963815	-1.55602784	24.76561791	0.55326834	-20.17622430	4.68427174	2.75231759	11.25991225
9866	98.65000000	9.22062426	2.48447061	6.45129765	10.73189660	-0.34169435	1.98061293	12.81393056	-1.93816914	-0.38166161	7.30392503	-4.01153033	10.26660991	10.51309091	-1.17407213	-1.11104106	9.64916460	1.01853803	-1.50824641	20.33273825	10.16844120	-18.78939956	4.76564404	2.72638576	11.28366366
9867	98.66000000	9.69972330	2.33267204	6.32781326	10.74355235	-0.72671639	2.33619090	15.08612402	-3.81422628	4.00562848	8.94236221	-2.71362915	7.72900490	10.83466385	-2.77639010	-1.27252163	9.83388289	0.64493200	-1.11202652	17.15096451	3.93197710	-3.68139524	4.37521037	3.09956098	11.62285874
9868	98.67000000	10.40884403	2.18234958	6.47302870	11.34256823	-0.95142846	3.46691948	16.19364299	-4.12511923	1.54039280	12.21736199	-2.44947420	4.11297891	11.39727168	-3.70062045	-1.38951718	10.51686985	-0.05510889	-0.75450625	24.29031883	-8.41283732	23.04025252	4.16451062	3.16414907	12.04837362
9869	98.68000000	11.71313557	2.02973974	6.94708709	12.41528084	-0.63708491	4.73943869	18.28611038	-9.21888655	3.85467846	14.56127742	-5.76123616	3.35388274	12.66923705	-3.77394371	-1.42392565	11.89005794	-1.00463231	-0.63143774	18.16988593	-5.27984629	23.65834031	4.11933777	2.58141526	12.41626864
9870	98.69000000	13.51564381	1.88030958	7.05814409	13.27998267	0.24321771	5.00079750	18.64370799	-12.87862455	11.27753458	13.35454095	-6.17016225	2.92455277	13.68970560	-3.93112095	-0.83895334	13.74291475	-2.50499349	-0.57321503	4.05664580	5.11158817	11.27648742	3.76328254	3.40247778	12.80047342
9871	98.70000000	14.52309543	1.73837058	6.34256870	13.75195673	0.54600782	3.91971456	13.74299329	-5.46556227	9.42376631	10.36846343	-2.53314934	3.80314994	13.68154140	-4.17880075	0.08562076	14.65832794	-3.93532061	-0.42357139	7.62399442	-0.10141013	9.69605857	3.43434383	3.69510998	12.99891853
9872	98.71000000	13.78306520	1.56510535	5.83477287	13.81807714	-0.85680923	3.65072653	5.78173952	6.42098219	3.27443182	7.62037334	-2.95976876	4.33378433	13.10033228	-4.03789067	1.04508743	14.25960824	-4.76256019	-0.06075467	11.19090648	1.07980800	9.75280094	3.48412140	2.41668929	12.88614895
9873	98.72000000	12.38787851	1.32454314	5.88709807	13.46091296	-3.17897965	4.26680119	-3.62249908	17.59249208	-3.74287467	7.14817536	-4.72245972	3.40013963	12.71841897	-3.10119334	1.60151441	13.70791059	-5.09405262	0.33252780	8.95510091	0.98397560	6.95910294	5.15790170	0.75388511	12.36031079
9874	98.73000000	12.04530951	1.01533334	6.00469872	12.87468903	-4.55734216	4.69650121	-2.34315593	22.95892832	-7.78514535	8.61436136	-2.82300022	3.69291190	12.50906183	-1.70162437	2.20831056	13.00897179	-4.96570369	0.41263409	9.84497640	-3.82843939	6.44560555	6.53699204	0.21800429	12.08123452
9875	98.74000000	12.66416594	0.70937812	5.85990516	12.08542291	-4.33198244	5.12257623	11.90017839	19.57275626	-5.68582080	9.23401281	-0.42065216	2.95442913	11.90285396	-0.60202493	2.59996909	12.07228462	-4.65533938	0.49432047	7.80559750	-2.78888402	7.74121773	6.03661526	1.79267309	12.27528765
9876	98.75000000	12.88630912	0.47165367	5.65279575	11.13159408	-2.75768409	5.76387313	19.63836095	11.82701331	-2.60764070	10.62270589	0.19793124	1.76271197	11.68759646	0.15825771	2.47316872	11.55918786	-3.66701105	-0.10113071	6.19824450	-1.51458591	8.34335166	6.62170979	2.06778296	12.42466627
9877	98.76000000	12.42682010	0.23562507	5.67587996	10.50580839	-0.44280435	6.29977337	14.03186443	2.78527081	0.90008958	13.58728574	0.15009956	1.21503450	11.49184457	0.17049621	1.87910041	11.28891908	-2.81335929	-0.05455473	6.48123764	-1.86112321	8.79937488	7.37208858	2.86175806	12.28344379
9878	98.77000000	11.70721137	0.03511729	5.40586380	10.33298723	1.81035747	6.44651264	8.09925511	-1.74132088	0.54132460	14.33645602	-0.53380250	0.41012904	11.27910588	-0.35059667	0.91830203	11.04092920	-1.91543531	0.50819340	5.06661583	-2.95504387	8.67526819	7.72859427	4.04313405	12.12062534
9879	98.78000000	11.09081541	-0.00735049	4.96086697	10.17697556	3.43981020	6.28847533	8.33278715	-1.40005864	-1.60682572	11.83057296	-1.73470506	0.15307949	11.21986941	-0.69246952	0.21339475	11.05849989	-1.08620687	0.68300364	4.87677231	-2.86584770	8.77505911	8.39155745	4.15714236	12.28673222
9880	98.79000000	10.59122775	-0.09762232	4.54102643	9.60381939	3.89766583	5.84227743	10.48476965	-0.25729382	-1.05472032	9.67156318	-2.72008363	0.78262551	10.50860897	-1.57724051	-0.33238900	10.67870813	-1.02724422	1.16119328	5.94448869	-1.73504397	8.44599236	8.78738117	3.50747276	12.09603777
9881	98.80000000	10.18127386	-0.31056073	4.21118506	8.73598577	3.27296135	5.42487396	11.42909099	2.57028865	-0.14542423	8.96194597	-3.38513127	1.58699196	9.51073045	-3.29015830	-0.90527135	10.40706685	-0.94950174	1.14373537	6.17265866	-0.85565019	8.04866794	6.38888288	4.52330261	14.65464744
9882	98.81000000	9.98658581	-0.50591975	4.10682747	8.20218830	2.03507015	5.18854123	10.56461090	4.89045982	-0.28787899	8.93420906	-3.26697127	2.09196179	8.07596535	-5.39948151	-1.89614070	10.23536947	-1.41783217	1.44395749	5.97774003	-0.94606165	8.14048701	1.82719721	9.81485853	19.49615583
9883	98.82000000	9.95888627	-0.60292441	4.07979808	8.14658427	0.71527730	4.99460588	8.76882144	5.87095208	-0.04136943	9.36396329	-2.42446216	2.37209552	7.27253617	-4.97014251	-1.55964008	10.44052113	-2.19164043	1.73457041	6.21946885	-1.34840345	8.28444226	-3.33325933	8.51370763	18.91186174
